# xmcd
#
# Track frame offsets: 
#        150
#        13059
#        24502
#        37277
#        49621
#        62295
#        74827
#        85541
#        95668
#        109141
#        122324
#        136291
#        150383
#        162093
#        173787
#        184062
#        196602
#        209887
#        223666
#        235556
#        250816
#        263732
#        275520
#        288303
#        300436
#        313752
#
# Disc length: 4354 seconds
#
# Revision: 0
# Processed by: cddbd v1.5.2PL0 Copyright (c) Steve Scherf et al.
# Submitted via: ExactAudioCopyFreeDBPlugin 1.0
#
DISCID=6911001a
DTITLE=Hank Snow - The Singing Ranger: 1949-1953 Disc 1
DYEAR=1989
DGENRE=Country
TTITLE0=I'm Movin' On
TTITLE1=With This Ring I Thee Wed
TTITLE2=The Rhumba Boogie
TTITLE3=Paving the Highway With Tears
TTITLE4=The Golden Rocket
TTITLE5=Your Locket Is My Broken Heart
TTITLE6=Unwanted Sign Upon Your Heart
TTITLE7=(I Wished Upon) My Little Golden Horseshoe
TTITLE8=Confused With the Blues
TTITLE9=You Pass Me By
TTITLE10=Love Entered the Iron Door
TTITLE11=I Cried But My Tears Were Too Late
TTITLE12=One More Ride
TTITLE13=Hobo Bill's Last Ride
TTITLE14=Wreck of the Old '97
TTITLE15=Ben Dewberry's Final Run
TTITLE16=The Mystery of Number Five
TTITLE17=The Engineer's Child
TTITLE18=The Law of Love
TTITLE19=Nobody's Child
TTITLE20=I Wonder Where You Are Tonight
TTITLE21=The Star Spangled Waltz
TTITLE22=The Blind Boy's Dog
TTITLE23=Marriage Vow
TTITLE24=The Only Rose
TTITLE25=The Anniversary of My Broken Heart
EXTD=
EXTT0=
EXTT1=
EXTT2=
EXTT3=
EXTT4=
EXTT5=
EXTT6=
EXTT7=
EXTT8=
EXTT9=
EXTT10=
EXTT11=
EXTT12=
EXTT13=
EXTT14=
EXTT15=
EXTT16=
EXTT17=
EXTT18=
EXTT19=
EXTT20=
EXTT21=
EXTT22=
EXTT23=
EXTT24=
EXTT25=
PLAYORDER=
